<svg class='zyro-cat' xmlns="http://www.w3.org/2000/svg" xmlns:xlink="http://www.w3.org/1999/xlink" width="57.478" height="70.737" viewBox="0 0 57.478 70.737">
  <defs>
    <filter id="Path_4" x="0" y="21.483" width="57.478" height="49.254" filterUnits="userSpaceOnUse">
      <feOffset dy="8" input="SourceAlpha"/>
      <feGaussianBlur stdDeviation="3" result="blur"/>
      <feFlood flood-opacity="0.161"/>
      <feComposite operator="in" in2="blur"/>
      <feComposite in="SourceGraphic"/>
    </filter>
    <filter id="Path_5" x="2.722" y="13.708" width="28.13" height="22.386" filterUnits="userSpaceOnUse">
      <feOffset dy="-8" input="SourceAlpha"/>
      <feGaussianBlur stdDeviation="3" result="blur-2"/>
      <feFlood flood-opacity="0.161"/>
      <feComposite operator="in" in2="blur-2"/>
      <feComposite in="SourceGraphic"/>
    </filter>
    <filter id="Path_6" x="25.402" y="13.708" width="27.374" height="22.386" filterUnits="userSpaceOnUse">
      <feOffset dy="-8" input="SourceAlpha"/>
      <feGaussianBlur stdDeviation="3" result="blur-3"/>
      <feFlood flood-opacity="0.161"/>
      <feComposite operator="in" in2="blur-3"/>
      <feComposite in="SourceGraphic"/>
    </filter>
    <filter id="Path_3" x="15.627" y="0" width="26.225" height="32.111" filterUnits="userSpaceOnUse">
      <feOffset dy="-8" input="SourceAlpha"/>
      <feGaussianBlur stdDeviation="3" result="blur-4"/>
      <feFlood flood-opacity="0.161"/>
      <feComposite operator="in" in2="blur-4"/>
      <feComposite in="SourceGraphic"/>
    </filter>
    <filter id="Polygon_4" x="13.5" y="22" width="36" height="35.5" filterUnits="userSpaceOnUse">
      <feOffset dx="3" dy="8" input="SourceAlpha"/>
      <feGaussianBlur stdDeviation="1.5" result="blur-5"/>
      <feFlood flood-opacity="0.161"/>
      <feComposite operator="in" in2="blur-5"/>
      <feComposite in="SourceGraphic"/>
    </filter>
  </defs>
  <g id="Path_9" data-name="Path 9" transform="translate(2 -1.122)" fill="#2e2727">
    <path d="M 26.31882858276367 50.93829727172852 C 12.08227825164795 50.93829727172852 0.4999985694885254 43.50971603393555 0.4999985694885254 34.37875747680664 C 0.4999985694885254 32.40469741821289 1.048268556594849 31.05998611450195 2.176148653030396 30.26779556274414 C 3.204528570175171 29.54548645019531 4.757638454437256 29.20906639099121 7.063858509063721 29.20906639099121 C 9.1644287109375 29.20906639099121 11.62940883636475 29.47913551330566 14.48362827301025 29.79185676574707 C 18.03313827514648 30.18075561523438 22.05625915527344 30.62153625488281 26.31882858276367 30.62153625488281 C 30.58080863952637 30.62153625488281 34.60396957397461 30.18076705932617 38.15353012084961 29.7918758392334 C 41.00799942016602 29.47914695739746 43.47319793701172 29.20906639099121 45.57378768920898 29.20906639099121 C 47.88049697875977 29.20906639099121 49.43371963500977 29.5454158782959 50.46187973022461 30.26757621765137 C 51.58950805664063 31.05960655212402 52.13765716552734 32.40438461303711 52.13765716552734 34.37875747680664 C 52.13765716552734 43.50971603393555 40.55537796020508 50.93829727172852 26.31882858276367 50.93829727172852 Z" stroke="none"/>
    <path d="M 7.063858032226563 29.70906448364258 C 4.865467071533203 29.70906448364258 3.403678894042969 30.01661682128906 2.463527679443359 30.67695617675781 C 1.835258483886719 31.11823654174805 1 31.98208618164063 1 34.37875747680664 C 1 36.48443603515625 1.641178131103516 38.53470611572266 2.905738830566406 40.47261428833008 C 4.154499053955078 42.38632583618164 5.953407287597656 44.11227798461914 8.252529144287109 45.60253524780273 C 10.58330917358398 47.11331558227539 13.30390930175781 48.30122375488281 16.33876037597656 49.13325500488281 C 19.49733734130859 49.99921417236328 22.85511779785156 50.43829345703125 26.31882858276367 50.43829345703125 C 29.78253936767578 50.43829345703125 33.14031982421875 49.99921417236328 36.29889678955078 49.13325500488281 C 39.33374786376953 48.30122375488281 42.05434799194336 47.11331558227539 44.38512802124023 45.60253524780273 C 46.68423843383789 44.11227798461914 48.48315811157227 42.38632583618164 49.73191833496094 40.47261428833008 C 50.99647903442383 38.53470611572266 51.63765716552734 36.48443603515625 51.63765716552734 34.37875747680664 C 51.63765716552734 31.98165512084961 50.80259704589844 31.11788558959961 50.17448806762695 30.67669677734375 C 49.23455047607422 30.01649475097656 47.77265930175781 29.70901489257813 45.57380676269531 29.70906448364258 C 43.50062942504883 29.7091064453125 41.04815673828125 29.9777946472168 38.20843887329102 30.28889465332031 C 34.64601898193359 30.67917633056641 30.60829925537109 31.12153625488281 26.31882858276367 31.12153625488281 C 22.0289478302002 31.12153625488281 17.99140930175781 30.67916488647461 14.42916870117188 30.28887557983398 C 11.58952713012695 29.97775650024414 9.137119293212891 29.70906448364258 7.063858032226563 29.70906448364258 M 7.063861846923828 28.70906829833984 C 11.86838531494141 28.70906829833984 18.71661758422852 30.12153625488281 26.31882858276367 30.12153625488281 C 33.92014694213867 30.12153625488281 40.76934814453125 28.70917129516602 45.57379150390625 28.70906829833984 C 49.95655822753906 28.7089729309082 52.63765716552734 29.88411712646484 52.63765716552734 34.37875747680664 C 52.63765716552734 43.80047607421875 40.85430908203125 51.43829345703125 26.31882858276367 51.43829345703125 C 11.78334045410156 51.43829345703125 0 43.80047607421875 0 34.37875747680664 C 0 29.88469314575195 2.682090759277344 28.70906829833984 7.063861846923828 28.70906829833984 Z" stroke="none" fill="#707070"/>
  </g>
  <g id="Component_4_2" data-name="Component 4 – 2" transform="translate(9 17)">
    <g transform="matrix(1, 0, 0, 1, -9, -17)" filter="url(#Path_4)">
      <g id="Path_4-2" data-name="Path 4" transform="translate(9 22.48)" fill="#fff">
        <path d="M 26.3188304901123 30.75361442565918 L 13.15941047668457 30.75361442565918 C 9.777960777282715 30.75361442565918 6.598900318145752 29.43680572509766 4.207860469818115 27.04575538635254 C 1.90101683139801 24.73891067504883 0.5940815806388855 21.69856643676758 0.5048892498016357 18.45065498352051 L 14.67696094512939 13.63280487060547 L 15.01603031158447 13.51754570007324 L 15.01603031158447 13.15941524505615 C 15.01603031158447 9.937225341796875 13.43069076538086 7.051905155181885 12.15685081481934 4.733495235443115 C 11.2927303314209 3.16078519821167 10.47652053833008 1.675285339355469 10.83022022247314 1.077375292778015 C 10.98604011535645 0.813985288143158 11.51661014556885 0.500005304813385 13.15941047668457 0.500005304813385 L 26.3188304901123 0.500005304813385 C 27.97055053710938 0.500005304813385 28.39186096191406 0.8181853294372559 28.49599075317383 1.007845282554626 C 28.78878974914551 1.541145324707031 27.85642051696777 3.006705284118652 26.95475959777832 4.424015522003174 C 25.51432991027832 6.688205242156982 23.54158973693848 9.789114952087402 23.54158973693848 13.15941524505615 L 23.54158973693848 13.52450561523438 L 23.88934135437012 13.63567543029785 L 38.9731559753418 18.45766258239746 C 38.88233184814453 21.70302391052246 37.57561874389648 24.74051666259766 35.27038192749023 27.04575538635254 C 32.87934112548828 29.43680572509766 29.70028114318848 30.75361442565918 26.3188304901123 30.75361442565918 Z" stroke="none"/>
        <path d="M 13.15941047668457 0.9999961853027344 C 11.53009033203125 0.9999961853027344 11.26253128051758 1.328615188598633 11.26056098937988 1.331935882568359 C 11.25965118408203 1.333484649658203 11.17986106872559 1.516075134277344 11.42475128173828 2.164525985717773 C 11.66414070129395 2.798435211181641 12.09554100036621 3.583585739135742 12.59506034851074 4.492715835571289 C 13.89643096923828 6.861225128173828 15.51603126525879 9.808904647827148 15.51603126525879 13.15941619873047 L 15.51603126525879 13.87566566467285 L 14.837890625 14.10620498657227 L 1.020210266113281 18.8035774230957 C 1.190498352050781 21.78485298156738 2.432727813720703 24.56352233886719 4.561408996582031 26.69219589233398 C 6.858020782470703 28.98880577087402 9.911510467529297 30.25360488891602 13.15941047668457 30.25360488891602 L 26.3188304901123 30.25360488891602 C 29.56673049926758 30.25360488891602 32.62022018432617 28.98880577087402 34.91683197021484 26.69219589233398 C 37.04214859008789 24.56688690185547 38.28381729125977 21.79357147216797 38.45721817016602 18.81764602661133 L 23.73709106445313 14.11192512512207 L 23.04158973693848 13.88959503173828 L 23.04158973693848 13.15941619873047 C 23.04158973693848 9.643545150756836 25.05949020385742 6.471645355224609 26.53289031982422 4.155624389648438 C 27.03165054321289 3.371635437011719 27.46240043640137 2.694555282592773 27.74608993530273 2.12486457824707 C 28.01905822753906 1.576709747314453 28.04862403869629 1.331769943237305 28.04882621765137 1.252300262451172 C 27.95626068115234 1.192331314086914 27.56219482421875 0.9999961853027344 26.3188304901123 0.9999961853027344 L 13.15941047668457 0.9999961853027344 M 13.15941047668457 -3.814697265625e-06 L 26.3188304901123 -3.814697265625e-06 C 33.58657073974609 -3.814697265625e-06 24.04159164428711 5.891664505004883 24.04159164428711 13.15941619873047 L 39.47824096679688 18.09419631958008 C 39.47824096679688 25.36194610595703 33.58657073974609 31.25360488891602 26.3188304901123 31.25360488891602 L 13.15941047668457 31.25360488891602 C 5.891670227050781 31.25360488891602 0 25.36194610595703 0 18.09419631958008 L 14.51603126525879 13.15941619873047 C 14.51603126525879 5.891664505004883 5.891670227050781 -3.814697265625e-06 13.15941047668457 -3.814697265625e-06 Z" stroke="none" fill="#707070"/>
      </g>
    </g>
    <g transform="matrix(1, 0, 0, 1, -9, -17)" filter="url(#Path_5)">
      <g id="Path_5-2" data-name="Path 5" transform="translate(13.76 30.71)" fill="#dfdfdf">
        <path d="M 5.112277030944824 3.386475801467896 L 1.274106860160828 3.386475801467896 C 1.270086884498596 3.386475801467896 0.859376847743988 3.376485824584961 -0.2045731246471405 2.513295888900757 C -0.3380392789840698 2.405011415481567 -0.4651875495910645 2.296679019927979 -0.5825735926628113 2.193312644958496 C -0.4604806303977966 2.085732936859131 -0.3281293213367462 1.9730384349823 -0.1895231306552887 1.860995888710022 C 0.863416850566864 1.009845852851868 1.270116925239563 0.9999958872795105 1.274106860160828 0.9999958872795105 L 5.112277030944824 0.9999958872795105 C 5.987576961517334 0.9999958872795105 7.095546722412109 1.739825844764709 7.095546722412109 2.193235874176025 C 7.095546722412109 2.646645784378052 5.987576961517334 3.386475801467896 5.112277030944824 3.386475801467896 Z" stroke="none"/>
        <path d="M 1.393595218658447 1.999995946884155 C 1.302399158477783 2.036118745803833 1.182825565338135 2.102995157241821 1.044784069061279 2.1928551197052 C 1.183207035064697 2.283106803894043 1.302994728088379 2.350356578826904 1.393760681152344 2.386476039886475 L 5.112277030944824 2.386476039886475 C 5.289253234863281 2.386476039886475 5.539015293121338 2.301786422729492 5.753848075866699 2.193235874176025 C 5.539015293121338 2.084685325622559 5.289253234863281 1.999995946884155 5.112277030944824 1.999995946884155 L 1.393595218658447 1.999995946884155 M 1.274106979370117 -4.291534423828125e-06 L 5.112277030944824 -4.291534423828125e-06 C 6.323566913604736 -4.291534423828125e-06 8.095546722412109 0.9819459915161133 8.095546722412109 2.193235874176025 C 8.095546722412109 3.404525756835938 6.323566913604736 4.386476039886475 5.112277030944824 4.386476039886475 L 1.274106979370117 4.386476039886475 C 0.06281709671020508 4.386476039886475 -2.034852981567383 2.193235874176025 -2.034852981567383 2.193235874176025 C -2.034852981567383 2.193235874176025 0.06281709671020508 -4.291534423828125e-06 1.274106979370117 -4.291534423828125e-06 Z" stroke="none" fill="#707070"/>
      </g>
    </g>
    <g transform="matrix(1, 0, 0, 1, -9, -17)" filter="url(#Path_6)">
      <g id="Path_6-2" data-name="Path 6" transform="translate(35.07 30.71)" fill="#dfdfdf">
        <path d="M 5.728140830993652 3.386475801467896 L 1.889980912208557 3.386475801467896 C 1.811300992965698 3.386475801467896 1.46393096446991 3.249945878982544 0.9184209704399109 2.643295764923096 C 0.7800838351249695 2.489455223083496 0.6543357372283936 2.333736896514893 0.5473684668540955 2.19323205947876 C 0.6543121337890625 2.052765846252441 0.7800838351249695 1.897016644477844 0.9184209704399109 1.743175864219666 C 1.46393096446991 1.136525869369507 1.811300992965698 0.9999958872795105 1.889980912208557 0.9999958872795105 L 5.728140830993652 0.9999958872795105 C 5.829730987548828 0.9999958872795105 6.254550933837891 1.1491858959198 6.990480899810791 1.830455899238586 C 7.123893260955811 1.953956604003906 7.248777389526367 2.077368259429932 7.36113977432251 2.193105936050415 C 7.243828296661377 2.314051866531372 7.113224983215332 2.443030118942261 6.974240779876709 2.57101583480835 C 6.247790813446045 3.239975929260254 5.828431129455566 3.386475801467896 5.728140830993652 3.386475801467896 Z" stroke="none"/>
        <path d="M 2.094504833221436 1.999995946884155 C 2.029485702514648 2.045894145965576 1.952795505523682 2.112254619598389 1.869632720947266 2.193235874176025 C 1.952795505523682 2.274217128753662 2.029485702514648 2.340577602386475 2.094504833221436 2.386476039886475 L 5.579708099365234 2.386476039886475 C 5.659885406494141 2.346457719802856 5.760313510894775 2.28004789352417 5.873358249664307 2.194165468215942 C 5.757596969604492 2.106330633163452 5.656630516052246 2.039454936981201 5.578878402709961 1.999995946884155 L 2.094504833221436 1.999995946884155 M 1.889980792999268 -4.291534423828125e-06 L 5.728140830993652 -4.291534423828125e-06 C 6.939431190490723 -4.291534423828125e-06 8.703010559082031 2.193235874176025 8.703010559082031 2.193235874176025 C 8.703010559082031 2.193235874176025 6.939431190490723 4.386476039886475 5.728140830993652 4.386476039886475 L 1.889980792999268 4.386476039886475 C 0.6786808967590332 4.386476039886475 -0.6713886260986328 2.193235874176025 -0.6713886260986328 2.193235874176025 C -0.6713886260986328 2.193235874176025 0.6786808967590332 -4.291534423828125e-06 1.889980792999268 -4.291534423828125e-06 Z" stroke="none" fill="#707070"/>
      </g>
    </g>
    <g transform="matrix(1, 0, 0, 1, -9, -17)" filter="url(#Path_3)">
      <g id="Path_3-2" data-name="Path 3" transform="translate(24.63 13.48)" fill="#2e2727">
        <path d="M 4.465001106262207 13.72466564178467 L 2.802453994750977 6.978558540344238 L 5.15089750289917 6.978558540344238 C 5.22394323348999 7.798994541168213 5.273709774017334 9.182747840881348 5.041066646575928 10.84389877319336 C 4.912128448486328 11.76455307006836 4.696566104888916 12.77803325653076 4.465001106262207 13.72466564178467 Z" stroke="none"/>
        <path d="M 0.02354145050048828 3.524736404418945 C 0.08803653717041016 3.524736404418945 0.2952165603637695 4.731256484985352 0.7678589820861816 5.452287673950195 C 0.2978401184082031 5.050029754638672 -3.814697265625e-06 4.452484130859375 -3.814697265625e-06 3.785327911376953 C -3.814697265625e-06 3.602422714233398 0.007183074951171875 3.524736404418945 0.02354145050048828 3.524736404418945 Z M 8.160036087036133 3.524736404418945 C 8.202258110046387 3.524700164794922 8.224637031555176 3.602348327636719 8.224637031555176 3.785327911376953 C 8.224637031555176 4.996618270874023 7.242686748504639 5.978558540344238 6.031396865844727 5.978558540344238 C 7.059706687927246 5.978558540344238 7.9227614402771 3.524936676025391 8.160036087036133 3.524736404418945 Z M 0.7678589820861816 5.452287673950195 C 1.15120792388916 5.780370712280273 1.649102210998535 5.978558540344238 2.193236827850342 5.978558540344238 L 6.031396865844727 5.978558540344238 C 6.031396865844727 5.978558540344238 6.439536571502686 8.068398475646973 6.031396865844727 10.98259830474854 C 5.623266696929932 13.89680862426758 4.398856639862061 17.63537788391113 4.398856639862061 17.63537788391113 L 1.526086807250977 5.978558540344238 C 1.218828201293945 5.978558540344238 0.9692435264587402 5.759506225585938 0.7678589820861816 5.452287673950195 Z" stroke="none" fill="#707070"/>
      </g>
    </g>
    <path id="Path_7" data-name="Path 7" d="M19.464,43.029a8.358,8.358,0,0,1-.761,3.934H17.65" transform="translate(-0.412 -19.436)" fill="none" stroke="#707070" stroke-width="1"/>
    <path id="Path_8" data-name="Path 8" d="M17.65,43.029a6.719,6.719,0,0,0,1.015,3.934h1.4" transform="translate(1.402 -19.436)" fill="none" stroke="#707070" stroke-width="1"/>
  </g>
  <g transform="matrix(1, 0, 0, 1, 0, 0)" filter="url(#Polygon_4)">
    <g id="Polygon_4-2" data-name="Polygon 4" transform="translate(15 22)" fill="#a59ebc" stroke-linecap="round">
      <path d="M 14.63850975036621 16.75701904296875 C 14.52501964569092 16.75701904296875 14.40620040893555 16.72918891906738 14.28534984588623 16.67428016662598 L 14.2375602722168 16.65255928039551 C 14.00430011749268 16.54658889770508 13.75615978240967 16.49287033081055 13.5 16.49287033081055 C 13.24384021759033 16.49287033081055 12.99569988250732 16.54658889770508 12.76247978210449 16.65254974365234 L 12.71463966369629 16.67428016662598 C 12.59379959106445 16.72917938232422 12.4749698638916 16.75701904296875 12.36145973205566 16.75701904296875 C 11.98705005645752 16.75701904296875 11.7219295501709 16.45484924316406 11.63403987884521 16.17409896850586 C 11.58450984954834 16.01585960388184 11.51556968688965 15.6156702041626 11.94427013397217 15.3181095123291 C 12.37775993347168 15.01723003387451 12.65429973602295 14.54331970214844 12.70300960540771 14.01788997650146 L 12.72031021118164 13.83113956451416 C 12.76893043518066 13.3065299987793 13.17070960998535 13.12037944793701 13.5 13.12037944793701 C 13.82929039001465 13.12037944793701 14.23106956481934 13.3065299987793 14.27968978881836 13.83115005493164 L 14.29699039459229 14.01786994934082 C 14.34570026397705 14.54333019256592 14.62224960327148 15.01723957061768 15.05574035644531 15.3181095123291 C 15.48435020446777 15.61561012268066 15.41541957855225 16.01577949523926 15.36588954925537 16.17402076721191 C 15.27799987792969 16.45479965209961 15.01288986206055 16.75699996948242 14.63850975036621 16.75701904296875 Z" stroke="none"/>
      <path d="M 13.5 13.62038040161133 C 13.24197959899902 13.62038040161133 13.22467994689941 13.80702972412109 13.21817970275879 13.87726020812988 L 13.2008695602417 14.06402969360352 C 13.13850975036621 14.73680019378662 12.78442001342773 15.34360980987549 12.2293701171875 15.72885990142822 C 12.12543964385986 15.80101013183594 12.06556034088135 15.87893009185791 12.11120986938477 16.02473068237305 C 12.14645957946777 16.1373405456543 12.24613952636719 16.25701904296875 12.36145973205566 16.25701904296875 C 12.40254974365234 16.25701904296875 12.45316028594971 16.24390029907227 12.5078296661377 16.21905899047852 L 12.5556697845459 16.19731903076172 C 12.85429000854492 16.06166076660156 13.17201042175293 15.99286937713623 13.5 15.99286937713623 C 13.82798957824707 15.99286937713623 14.14570999145508 16.06166076660156 14.44441032409668 16.19736099243164 L 14.49217987060547 16.21905899047852 C 14.54761028289795 16.2442512512207 14.59685039520264 16.25701904296875 14.63852977752686 16.25701904296875 C 14.7537899017334 16.25701904296875 14.85346031188965 16.13731956481934 14.88871955871582 16.02468872070313 C 14.93435955047607 15.87887954711914 14.87452030181885 15.80097007751465 14.77064037322998 15.72885990142822 C 14.21558952331543 15.34362030029297 13.86149024963379 14.73680973052979 13.79911994934082 14.06398963928223 L 13.78182983398438 13.87730026245117 C 13.77532005310059 13.80702972412109 13.75802040100098 13.62038040161133 13.5 13.62038040161133 M 13.5 12.62038040161133 C 14.1028003692627 12.62038040161133 14.70559978485107 13.00859069824219 14.77756023406982 13.78500938415527 L 14.79485988616943 13.97174072265625 C 14.82981967926025 14.34890937805176 15.02964973449707 14.69137001037598 15.34082984924316 14.90734958648682 L 15.34082984924316 14.9073600769043 C 16.44978713989258 15.67708587646484 15.76310539245605 17.25701904296875 14.63852882385254 17.25701904296875 C 14.46098041534424 17.25701904296875 14.27256774902344 17.21765518188477 14.07853031158447 17.1294994354248 L 14.03071022033691 17.10776901245117 C 13.86209964752197 17.03116989135742 13.68105030059814 16.99287033081055 13.5 16.99287033081055 C 13.31894969940186 16.99287033081055 13.13790035247803 17.03116989135742 12.96928977966309 17.10776901245117 L 12.92146015167236 17.1294994354248 C 12.72751045227051 17.21761703491211 12.53894233703613 17.25701904296875 12.36146450042725 17.25701904296875 C 11.2367525100708 17.25701904296875 10.55013465881348 15.67714023590088 11.65917015075684 14.9073600769043 L 11.65917015075684 14.90734958648682 C 11.97035026550293 14.69137001037598 12.17018032073975 14.34890937805176 12.20514011383057 13.97174072265625 L 12.22243976593018 13.78500938415527 C 12.29440021514893 13.00859069824219 12.8971996307373 12.62038040161133 13.5 12.62038040161133 Z" stroke="none" fill="#707070"/>
    </g>
  </g>
</svg>
