<svg xmlns="http://www.w3.org/2000/svg" xmlns:xlink="http://www.w3.org/1999/xlink" width="88" height="80.5" viewBox="0 0 88 80.5">
  <defs>
    <filter id="Polygon_3" x="0" y="0" width="88" height="80.5" filterUnits="userSpaceOnUse">
      <feOffset dx="3" dy="8" input="SourceAlpha"/>
      <feGaussianBlur stdDeviation="1.5" result="blur"/>
      <feFlood flood-opacity="0.161"/>
      <feComposite operator="in" in2="blur"/>
      <feComposite in="SourceGraphic"/>
    </filter>
    <filter id="Polygon_2" x="5" y="4" width="77" height="70.5" filterUnits="userSpaceOnUse">
      <feOffset dx="3" dy="8" input="SourceAlpha"/>
      <feGaussianBlur stdDeviation="1.5" result="blur-2"/>
      <feFlood flood-opacity="0.161"/>
      <feComposite operator="in" in2="blur-2"/>
      <feComposite in="SourceGraphic"/>
    </filter>
  </defs>
  <g id="Component_5_1" data-name="Component 5 – 1" transform="translate(1.5)">
    <g transform="matrix(1, 0, 0, 1, -1.5, 0)" filter="url(#Polygon_3)">
      <g id="Polygon_3-2" data-name="Polygon 3" transform="translate(1.5)" fill="#fff" stroke-linecap="round">
        <path d="M 61.62646865844727 67.5 L 17.3735294342041 67.5 C 13.93385982513428 67.5 10.8559103012085 65.72023010253906 9.140009880065918 62.73911285400391 C 7.42411994934082 59.75800323486328 7.431169986724854 56.20254135131836 9.158880233764648 53.22825241088867 L 31.28535079956055 15.13711261749268 C 33.00516128540039 12.17643260955811 36.0760498046875 10.40886211395264 39.5 10.40886211395264 C 42.9239387512207 10.40886211395264 45.99483108520508 12.17643260955811 47.71464157104492 15.13711261749268 L 69.84111785888672 53.22824096679688 C 71.56883239746094 56.20253372192383 71.57588195800781 59.75800323486328 69.85997772216797 62.73911285400391 C 68.14408874511719 65.72023010253906 65.06613922119141 67.5 61.62646865844727 67.5 Z" stroke="none"/>
        <path d="M 39.4999885559082 10.90885925292969 C 36.25625991821289 10.90885925292969 33.34698867797852 12.58340072631836 31.71770095825195 15.38826370239258 L 9.591232299804688 53.47940063476563 C 7.954452514648438 56.29714202880859 7.947769165039063 59.66547393798828 9.573348999023438 62.48969268798828 C 11.19893646240234 65.31390380859375 14.11489105224609 67 17.37353134155273 67 L 61.62647247314453 67 C 64.88510131835938 67 67.80104827880859 65.31390380859375 69.42662811279297 62.48969268798828 C 71.05222320556641 59.66547393798828 71.04554748535156 56.29713439941406 69.40876770019531 53.47939300537109 L 47.28228759765625 15.38826370239258 C 45.65299987792969 12.58340072631836 42.74372863769531 10.90885925292969 39.4999885559082 10.90885925292969 M 39.49999618530273 9.908859252929688 C 42.85978698730469 9.908859252929688 46.21958160400391 11.56789398193359 48.14698791503906 14.88597106933594 L 70.27346801757813 52.97710418701172 C 74.14598846435547 59.64373016357422 69.33622741699219 68 61.62647247314453 68 L 17.37353134155273 68 C 9.66375732421875 68 4.853996276855469 59.64374160766602 8.726531982421875 52.97711181640625 L 30.85300064086914 14.88597106933594 C 32.78041076660156 11.56789398193359 36.14020156860352 9.908859252929688 39.49999618530273 9.908859252929688 Z" stroke="none" fill="#707070"/>
      </g>
    </g>
    <g transform="matrix(1, 0, 0, 1, -1.5, 0)" filter="url(#Polygon_2)">
      <g id="Polygon_2-2" data-name="Polygon 2" transform="translate(6.5 4)" fill="#fff" stroke-linecap="round">
        <path d="M 50.54639053344727 57.00000381469727 L 17.45360946655273 57.00000381469727 C 14.18750953674316 57.00000381469727 11.26823043823242 55.30811309814453 9.644539833068848 52.47419357299805 C 8.02085018157959 49.64027404785156 8.037599563598633 46.26619338989258 9.689330101013184 43.44852447509766 L 26.23571968078613 15.22233295440674 C 27.86861038208008 12.43680286407471 30.77115058898926 10.77380275726318 34 10.77380275726318 C 37.22885131835938 10.77380275726318 40.13137817382813 12.43680286407471 41.76427841186523 15.22233295440674 L 58.3106689453125 43.44852447509766 C 59.96240997314453 46.26618194580078 59.97914886474609 49.64027404785156 58.35546875 52.47419357299805 C 56.73178100585938 55.30811309814453 53.8125 57.00000381469727 50.54639053344727 57.00000381469727 Z" stroke="none"/>
        <path d="M 34 11.7738037109375 C 31.12990951538086 11.7738037109375 28.54988098144531 13.25202178955078 27.09841918945313 15.72805404663086 L 10.55202865600586 43.95424270629883 C 9.083820343017578 46.45883178710938 9.068931579589844 49.45801544189453 10.51221084594727 51.97705078125 C 11.95549011230469 54.49610137939453 14.55039978027344 56.00000381469727 17.45360946655273 56.00000381469727 L 50.54639053344727 56.00000381469727 C 53.44960021972656 56.00000381469727 56.04450988769531 54.49610137939453 57.48778915405273 51.97705078125 C 58.93106842041016 49.45801544189453 58.91617965698242 46.45883178710938 57.44797134399414 43.95424270629883 L 40.90158843994141 15.72805404663086 C 39.45011901855469 13.25202178955078 36.87009048461914 11.7738037109375 34 11.7738037109375 M 34 9.7738037109375 C 37.34765243530273 9.7738037109375 40.69530487060547 11.42140960693359 42.62697982788086 14.71661376953125 L 59.17337036132813 42.94280242919922 C 63.08129119873047 49.6092529296875 58.27383041381836 58.00000381469727 50.54639053344727 58.00000381469727 L 17.45360946655273 58.00000381469727 C 9.726169586181641 58.00000381469727 4.918708801269531 49.6092529296875 8.826629638671875 42.94280242919922 L 25.37302017211914 14.71661376953125 C 27.30469512939453 11.42140960693359 30.65234756469727 9.7738037109375 34 9.7738037109375 Z" stroke="none" fill="#707070"/>
      </g>
    </g>
  </g>
</svg>
